# xmcd CD database file
# Copyright (C) 1993-1998 Ti Kan
#
# Track frame offsets:
#  150
#  14517
#  26252
#  35422
#  53220
#  66170
#  77705
#  88287
#  111815
#  127885
#  146375
#  163025
#  175350
#  185897
#  198610
#  207562
#  218987
#  235795
#  248485
#  261092
#
# Disc length: 3630 seconds
#
# Revision: 1
# Processed by: cddbd v1.4b41PL1 Copyright (c) Steve Scherf et al.
# Submitted via: CDWizzard Release:4.61
#
DISCID=220e2c14
DTITLE=Various Artist - Simply Soul - Band of Gold
DYEAR=1900
DGENRE=
TTITLE0=Warm And Tender Love
TTITLE1=Under The Boardwalk
TTITLE2=Every Beat of My Heart
TTITLE3=Rainy Night In Georgia
TTITLE4=I Thank You
TTITLE5=Make It Sasy On Yourself
TTITLE6=Papa's Got A Brand New Bag
TTITLE7=A woman in Love
TTITLE8=I've Never Found A Girl To Love Me Like You Do
TTITLE9=Bank Of Gold
TTITLE10=Protrait of My Love
TTITLE11=Let It Be Me
TTITLE12=Needle In A Haystack
TTITLE13=I've Been Loving You Too Long
TTITLE14=Ain't No Sunshine
TTITLE15=Up On THe Roof
TTITLE16=Hold On I'm Comin'
TTITLE17=Letter Full Of Tears
TTITLE18=The Challenge
TTITLE19=Duke Of Earl
EXTD=
EXTT0=Percy Sledge
EXTT1=The Drifters
EXTT2=Gladys Knight and The Pips
EXTT3=
EXTT4=
EXTT5=
EXTT6=
EXTT7=
EXTT8=
EXTT9=
EXTT10=
EXTT11=
EXTT12=The Whispers
EXTT13=Percy Sledge
EXTT14=
EXTT15=
EXTT16=
EXTT17=Gladys Knight and The Pips
EXTT18=
EXTT19=
PLAYORDER=
